<svg width="605" height="181" viewBox="0 0 605 181" fill="none" xmlns="http://www.w3.org/2000/svg">
<rect width="605" height="181" fill="#F5F5F5"/>
<g clip-path="url(#clip0_0_1)">
<mask id="mask0_0_1" style="mask-type:alpha" maskUnits="userSpaceOnUse" x="6" y="9" width="575" height="157">
<path d="M10.2 166C9.4 166 8.6 165.733 7.8 165.2C7.13333 164.667 6.8 163.933 6.8 163C6.8 158.067 8.33333 152.867 11.4 147.4C14.4667 141.933 18.5333 136.333 23.6 130.6C28.6667 124.867 34.2667 119.267 40.4 113.8C46.5333 108.2 52.7333 103 59 98.2C65.2667 93.4 71.0667 89.1333 76.4 85.4C81.7333 81.6667 86.1333 78.7333 89.6 76.6C90.6667 75.9333 91.8 75.2667 93 74.6C93 71.4 93 68.4667 93 65.8C93 60.7333 92.8667 56.0667 92.6 51.8C92.4667 47.5333 92.1333 44.1333 91.6 41.6C90.1333 36.8 87.8 33.3333 84.6 31.2C81.5333 29.0667 78 28 74 28C70 28 65.8667 28.8 61.6 30.4C57.3333 32 53.2667 34.2 49.4 37C45.6667 39.6667 42.4667 42.6667 39.8 46C37.1333 49.2 35.4 52.5333 34.6 56C34.2 57.6 34 59 34 60.2C34 63.1333 34.8 65.1333 36.4 66.2C38.1333 67.2667 40.1333 67.8 42.4 67.8C45.3333 67.8 48.6 67.2667 52.2 66.2C52.4667 66.0667 52.8 66 53.2 66C54.2667 66 55.1333 66.4 55.8 67.2C56.4667 68 56.8 68.9333 56.8 70C56.8 71.4667 56.1333 72.4667 54.8 73C52.6667 73.8 50.6 74.4 48.6 74.8C46.6 75.0667 44.6 75.2 42.6 75.2C38.3333 75.2 34.6667 74.0667 31.6 71.8C28.5333 69.5333 27 65.9333 27 61C27 59.1333 27.2 57 27.6 54.6C28.6667 50.2 30.7333 46 33.8 42C37 38 40.8 34.4 45.2 31.2C49.7333 28 54.4667 25.4667 59.4 23.6C64.4667 21.7333 69.3333 20.8 74 20.8C79.4667 20.8 84.4667 22.4 89 25.6C93.6667 28.6667 96.8667 33.3333 98.6 39.6C99.5333 42.4 100.133 45.7333 100.4 49.6C100.667 53.3333 100.8 57.3333 100.8 61.6C100.8 63.8667 100.733 66.4667 100.6 69.4C105.667 65.9333 111.133 62 117 57.6C123 53.0667 129 48.4667 135 43.8C141 39 146.6 34.4667 151.8 30.2C157.133 25.8 161.667 21.9333 165.4 18.6C169.133 15.1333 171.6 12.6 172.8 11C173.467 9.93333 174.333 9.4 175.4 9.4C176.467 9.4 177.4 9.8 178.2 10.6C179.133 11.2667 179.6 12.1333 179.6 13.2C179.6 13.8667 179.467 14.4 179.2 14.8C178.133 16.5333 175.533 19.3333 171.4 23.2C167.267 26.9333 162.2 31.2667 156.2 36.2C150.333 41.1333 144 46.2 137.2 51.4C130.533 56.6 123.933 61.6 117.4 66.4C111 71.2 105.333 75.2667 100.4 78.6C100.267 79.8 100.133 81 100 82.2C100 83.2667 100 84.4 100 85.6C99.8667 89.7333 99.6667 93.9333 99.4 98.2C99.1333 102.333 99 106.267 99 110C99 115.467 99.2667 120.6 99.8 125.4C100.467 130.2 101.6 134.133 103.2 137.2C104.667 140 106.533 141.4 108.8 141.4C109.733 141.4 111 141.067 112.6 140.4C116.6 138.8 120.2 136.333 123.4 133C126.733 129.667 129.6 126.133 132 122.4C134.533 118.533 136.6 114.933 138.2 111.6C139.8 108.267 140.867 105.8 141.4 104.2C141.933 102.867 142.933 102.2 144.4 102.2C145.6 102.2 146.667 102.667 147.6 103.6C148.667 104.533 149 105.733 148.6 107.2C148.067 108.667 146.933 111.2 145.2 114.8C143.467 118.4 141.2 122.333 138.4 126.6C135.6 130.867 132.267 134.933 128.4 138.8C124.533 142.533 120.2 145.333 115.4 147.2C113 148.4 110.667 149 108.4 149C104.533 149 101.467 147.6 99.2 144.8C96.9333 142 95.2667 138.533 94.2 134.4C93.1333 130.267 92.4 126.133 92 122C91.7333 117.733 91.6 114.267 91.6 111.6C91.6 109.733 91.6667 107.533 91.8 105C91.9333 102.333 92.0667 99.4667 92.2 96.4C92.3333 94.4 92.4 92.3333 92.4 90.2C92.5333 88.0667 92.6 85.8667 92.6 83.6C88.2 86.4 82.7333 90.2 76.2 95C69.6667 99.6667 62.8667 104.933 55.8 110.8C48.7333 116.533 42.0667 122.533 35.8 128.8C29.6667 135.067 24.5333 141.133 20.4 147C16.4 152.867 14.2667 158.2 14 163C13.8667 163.933 13.4 164.667 12.6 165.2C11.9333 165.733 11.1333 166 10.2 166ZM201.238 76.8C199.638 76.8 198.171 76.2667 196.838 75.2C195.638 74 195.038 72.5333 195.038 70.8C195.038 68.9333 195.638 67.4 196.838 66.2C198.038 65 199.504 64.4 201.238 64.4C203.104 64.4 204.638 65 205.838 66.2C207.038 67.4 207.638 68.9333 207.638 70.8C207.638 72.5333 206.971 74 205.638 75.2C204.438 76.2667 202.971 76.8 201.238 76.8ZM171.638 136.8C169.904 136.8 168.504 136.333 167.438 135.4C166.371 134.333 165.838 132.667 165.838 130.4C165.838 127.6 166.504 124.2 167.838 120.2C169.171 116.067 170.904 111.867 173.038 107.6C175.171 103.2 177.438 99.2 179.838 95.6C182.371 91.8667 184.771 88.9333 187.038 86.8C187.971 85.8667 189.104 85.4 190.438 85.4C191.504 85.4 192.438 85.6667 193.238 86.2C194.038 86.7333 194.438 87.4 194.438 88.2C194.438 88.8667 194.104 89.5333 193.438 90.2C192.504 91.1333 191.304 92.6667 189.838 94.8C188.504 96.8 187.171 98.9333 185.838 101.2C184.504 103.333 183.504 105.133 182.838 106.6C181.638 109.133 180.304 112 178.837 115.2C177.371 118.4 176.304 121 175.638 123C175.238 124.333 175.038 125.333 175.038 126C175.038 127.467 175.571 128.2 176.638 128.2C177.571 128.2 178.638 127.8 179.838 127C181.038 126.067 182.104 125.267 183.038 124.6C186.371 121.933 189.438 119.133 192.238 116.2C195.171 113.133 197.838 110.267 200.238 107.6C200.771 106.933 201.438 106.6 202.237 106.6C202.904 106.6 203.504 107 204.038 107.8C204.704 108.467 205.038 109.333 205.038 110.4C205.038 111.6 204.704 112.6 204.038 113.4C202.038 116.2 199.238 119.333 195.638 122.8C192.171 126.133 189.104 128.8 186.438 130.8C184.704 132.133 182.371 133.467 179.438 134.8C176.638 136.133 174.038 136.8 171.638 136.8ZM196.952 143.6C196.018 143.6 195.152 143.267 194.352 142.6C193.552 141.933 193.152 141.133 193.152 140.2C193.152 139.933 193.285 139.4 193.552 138.6C196.218 132.867 198.818 127.667 201.352 123C204.018 118.2 206.752 113.533 209.552 109C210.752 107.133 212.085 104.733 213.552 101.8C215.152 98.7333 216.685 95.4667 218.152 92C219.618 88.4 220.818 85 221.752 81.8C222.818 78.6 223.352 76 223.352 74C223.352 72.9333 223.285 72.2 223.152 71.8C223.018 71.6667 222.952 71.4 222.952 71C222.952 69.9333 223.418 69.0667 224.352 68.4C225.418 67.6 226.418 67.2 227.352 67.2C228.418 67.2 229.418 67.7333 230.352 68.8C231.285 69.7333 231.752 71.4 231.752 73.8C231.752 75.8 231.285 78.4667 230.352 81.8C229.552 85 228.152 88.8667 226.152 93.4C225.085 95.6667 224.085 97.8 223.152 99.8C222.218 101.667 221.285 103.467 220.352 105.2C225.552 99.7333 230.885 94.8667 236.352 90.6C241.818 86.2 246.685 82.7333 250.952 80.2C255.218 77.6667 258.085 76.4 259.552 76.4C261.152 76.4 262.285 76.8667 262.952 77.8C263.618 78.7333 263.952 79.8 263.952 81C263.952 82.7333 263.418 84.7333 262.352 87C261.418 89.1333 260.418 91.0667 259.352 92.8C258.285 94.5333 257.552 95.7333 257.152 96.4C255.685 98.6667 253.685 102.067 251.152 106.6C248.618 111.133 246.485 115.533 244.752 119.8C244.218 121.267 243.685 122.8 243.152 124.4C242.752 125.867 242.552 127.133 242.552 128.2C242.552 129.933 243.285 130.8 244.752 130.8C246.085 130.8 248.018 130.133 250.552 128.8C253.752 127.067 256.685 124.867 259.352 122.2C262.152 119.4 264.552 117 266.552 115C266.685 114.867 267.285 114.2 268.352 113C269.552 111.8 270.685 110.6 271.752 109.4C272.952 108.2 273.552 107.6 273.552 107.6C274.085 106.933 274.752 106.6 275.552 106.6C276.218 106.6 276.818 107 277.352 107.8C278.018 108.467 278.352 109.333 278.352 110.4C278.352 111.6 278.018 112.6 277.352 113.4C275.352 116.2 272.618 119.267 269.152 122.6C265.685 125.933 262.618 128.667 259.952 130.8C257.152 132.933 254.285 134.667 251.352 136C248.552 137.2 245.752 137.8 242.952 137.8C240.552 137.8 238.552 137.333 236.952 136.4C235.352 135.467 234.552 133 234.552 129C234.552 123.933 235.818 118.933 238.352 114C241.018 109.067 243.952 104.2 247.152 99.4C250.485 94.6 253.218 90.0667 255.352 85.8C252.018 87.8 247.552 90.8667 241.952 95C236.485 99.1333 230.685 104 224.552 109.6C218.552 115.067 213.085 121.067 208.152 127.6C207.218 129.333 206.218 131.2 205.152 133.2C204.085 135.2 203.018 137.4 201.952 139.8C200.752 142.333 199.085 143.6 196.952 143.6ZM326.223 140.4C320.623 140.4 316.357 139 313.423 136.2C310.623 133.4 309.223 129.8 309.223 125.4C309.223 120.333 310.223 115.533 312.223 111C314.357 106.467 316.757 102.267 319.423 98.4C323.29 92.8 327.89 88.0667 333.223 84.2C338.69 80.2 344.357 78.2 350.223 78.2C354.09 78.2 356.757 79.1333 358.223 81C359.69 82.7333 360.423 84.9333 360.423 87.6C360.423 90.4 359.823 93.3333 358.623 96.4C357.423 99.3333 356.09 101.667 354.623 103.4C353.69 104.467 352.69 105 351.623 105C349.49 105 348.423 104.067 348.423 102.2C348.423 101.267 348.823 100.4 349.623 99.6C350.29 98.9333 351.09 97.4 352.023 95C353.09 92.4667 353.623 90.2667 353.623 88.4C353.623 86.5333 353.023 85.5333 351.823 85.4C351.423 85.2667 350.89 85.2 350.223 85.2C347.557 85.2 344.557 86.2667 341.223 88.4C337.89 90.4 334.69 93.0667 331.623 96.4C328.557 99.7333 325.957 103.267 323.823 107C322.09 109.933 320.69 113.067 319.623 116.4C318.557 119.733 318.023 122.6 318.023 125C318.023 127.533 318.757 129.533 320.223 131C321.823 132.467 324.09 133.2 327.023 133.2C331.69 133.2 336.557 131.933 341.623 129.4C346.823 126.867 351.023 124.267 354.223 121.6C356.89 119.333 359.357 117 361.623 114.6C363.89 112.067 366.023 109.733 368.023 107.6C368.557 106.933 369.223 106.6 370.023 106.6C370.69 106.6 371.29 107 371.823 107.8C372.49 108.467 372.823 109.333 372.823 110.4C372.823 111.6 372.49 112.6 371.823 113.4C369.69 116.2 366.89 119.333 363.423 122.8C359.957 126.133 356.89 128.8 354.223 130.8C350.49 133.467 346.023 135.733 340.823 137.6C335.623 139.467 330.757 140.4 326.223 140.4ZM367.52 140.6C366.587 140.6 365.72 140.267 364.92 139.6C364.12 139.067 363.787 138.2 363.92 137C364.454 130.333 366.32 122.533 369.52 113.6C372.854 104.667 376.92 95.6 381.72 86.4C380.12 86.2667 378.52 86.0667 376.92 85.8C375.987 85.5333 375.254 85.0667 374.72 84.4C374.187 83.7333 373.92 83.0667 373.92 82.4C373.92 81.7333 374.12 81.1333 374.52 80.6C375.054 79.9333 375.787 79.6 376.72 79.6C377.52 79.6 378.387 79.7333 379.32 80C380.387 80.1333 381.52 80.2 382.72 80.2C383.52 80.2 384.254 80.2 384.92 80.2C389.587 71.2667 394.52 62.8667 399.72 55C404.92 47 409.72 40.3333 414.12 35C416.787 31.8 419.587 28.7333 422.52 25.8C425.454 22.8667 428.454 20.4667 431.52 18.6C434.72 16.6 437.787 15.6 440.72 15.6C444.587 15.6 447.254 16.6667 448.72 18.8C450.32 20.8 451.12 23.3333 451.12 26.4C451.12 30.8 449.92 35.2667 447.52 39.8C445.52 43.5333 442.52 47.8667 438.52 52.8C434.52 57.6 429.854 62.4 424.52 67.2C419.32 71.8667 413.654 75.9333 407.52 79.4C401.52 82.8667 395.387 85.0667 389.12 86C386.32 91.3333 383.787 96.6 381.52 101.8C379.387 107 377.52 111.933 375.92 116.6C376.987 115.267 378.054 113.933 379.12 112.6C382.587 108.333 386.054 104.333 389.52 100.6C392.987 96.7333 397.387 92.8667 402.72 89C408.054 85.1333 412.787 82.0667 416.92 79.8C421.187 77.4 423.987 76.2667 425.32 76.4C428.12 76.8 429.52 78.3333 429.52 81C429.52 82.7333 428.987 84.7333 427.92 87C426.987 89.1333 425.987 91.0667 424.92 92.8C423.854 94.5333 423.12 95.7333 422.72 96.4C421.254 98.6667 419.254 102.067 416.72 106.6C414.187 111.133 412.054 115.533 410.32 119.8C409.787 121.267 409.254 122.8 408.72 124.4C408.32 125.867 408.12 127.133 408.12 128.2C408.12 129.933 408.854 130.8 410.32 130.8C411.654 130.8 413.587 130.133 416.12 128.8C419.32 127.067 422.254 124.867 424.92 122.2C427.72 119.4 430.12 117 432.12 115C432.254 114.867 432.854 114.2 433.92 113C435.12 111.8 436.254 110.6 437.32 109.4C438.52 108.2 439.12 107.6 439.12 107.6C439.654 106.933 440.32 106.6 441.12 106.6C441.787 106.6 442.387 107 442.92 107.8C443.587 108.467 443.92 109.333 443.92 110.4C443.92 111.6 443.587 112.6 442.92 113.4C440.92 116.2 438.187 119.267 434.72 122.6C431.254 125.933 428.187 128.667 425.52 130.8C422.72 132.933 419.854 134.6 416.92 135.8C413.987 137 411.32 137.6 408.92 137.6C406.387 137.6 404.254 136.867 402.52 135.4C400.92 133.933 400.12 131.6 400.12 128.4C400.12 125.467 400.787 122.2 402.12 118.6C403.987 113.133 406.72 107.733 410.32 102.4C414.054 97.0667 417.12 91.9333 419.52 87C409.787 92.7333 400.787 99.7333 392.52 108C384.254 116.267 377.187 125 371.32 134.2C371.187 135.267 371.054 136.333 370.92 137.4C370.92 138.467 370.52 139.267 369.72 139.8C369.054 140.333 368.32 140.6 367.52 140.6ZM440.52 22.6C437.987 22.6 434.987 24 431.52 26.8C428.054 29.6 424.454 33.2667 420.72 37.8C417.12 42.2 413.52 47 409.92 52.2C406.32 57.2667 403.054 62.2 400.12 67C397.187 71.6667 394.854 75.5333 393.12 78.6C398.454 76.7333 404.187 73.8 410.32 69.8C416.454 65.8 422.254 61 427.72 55.4C433.187 49.8 437.72 43.6 441.32 36.8C442.387 34.6667 443.12 32.8667 443.52 31.4C444.054 29.8 444.32 28.4667 444.32 27.4C444.32 25.5333 443.854 24.2667 442.92 23.6C442.12 22.9333 441.32 22.6 440.52 22.6ZM442.809 140C439.076 140 436.276 138.933 434.409 136.8C432.676 134.533 431.809 131.733 431.809 128.4C431.809 124.667 432.876 120.333 435.009 115.4C437.276 110.333 440.209 105.133 443.809 99.8C447.409 94.4667 451.343 89.5333 455.609 85C460.009 80.3333 464.409 76.6 468.809 73.8C473.209 70.8667 477.276 69.4 481.009 69.4C483.543 69.4 486.009 69.8 488.409 70.6C490.809 71.2667 492.743 72.6667 494.209 74.8C495.809 76.9333 496.609 80.0667 496.609 84.2C496.609 85.6667 496.209 86.7333 495.409 87.4C494.609 88.0667 493.876 88.4 493.209 88.4C491.743 88.4 491.009 87.8667 491.009 86.8C490.343 82.5333 488.943 79.7333 486.809 78.4C484.809 77.0667 482.876 76.4 481.009 76.4C478.343 76.4 475.209 77.7333 471.609 80.4C468.009 83.0667 464.343 86.4667 460.609 90.6C456.876 94.7333 453.343 99.2 450.009 104C446.809 108.667 444.209 113.2 442.209 117.6C440.209 121.867 439.209 125.4 439.209 128.2C439.209 129.533 439.409 130.733 439.809 131.8C440.343 132.867 441.143 133.4 442.209 133.4C444.209 133.4 446.809 132.333 450.009 130.2C453.209 128.067 456.609 125.333 460.209 122C463.943 118.533 467.609 114.933 471.209 111.2C474.809 107.467 478.076 103.933 481.009 100.6C483.943 97.2667 486.209 94.6 487.809 92.6C488.609 91.4 489.609 90.8 490.809 90.8C491.743 90.8 492.609 91.1333 493.409 91.8C494.209 92.4667 494.609 93.3333 494.609 94.4C494.609 94.9333 494.409 95.5333 494.009 96.2C493.076 97.6667 491.943 99.7333 490.609 102.4C489.409 105.067 488.143 107.933 486.809 111C485.609 114.067 484.543 116.933 483.609 119.6C482.809 122.133 482.409 124.067 482.409 125.4C482.409 126.733 482.876 127.4 483.809 127.4C484.476 127.4 485.276 127.067 486.209 126.4C487.276 125.733 488.209 125.133 489.009 124.6C492.209 121.933 495.276 119.133 498.209 116.2C501.143 113.133 503.809 110.267 506.209 107.6C506.743 106.933 507.409 106.6 508.209 106.6C508.876 106.6 509.476 107 510.009 107.8C510.676 108.467 511.009 109.333 511.009 110.4C511.009 111.6 510.676 112.6 510.009 113.4C507.876 116.2 505.076 119.333 501.609 122.8C498.143 126.133 495.076 128.8 492.409 130.8C490.676 132 488.609 133.2 486.209 134.4C483.943 135.467 481.743 136 479.609 136C478.009 136 476.676 135.533 475.609 134.6C474.543 133.533 474.009 131.733 474.009 129.2C474.009 127.2 474.343 124.933 475.009 122.4C475.676 119.867 476.476 117.267 477.409 114.6C473.676 118.6 469.676 122.533 465.409 126.4C461.143 130.267 457.009 133.533 453.009 136.2C449.143 138.733 445.743 140 442.809 140ZM491.409 59.4C491.143 59.4 490.743 59.2667 490.209 59L470.209 46.8C469.143 46.2667 468.609 45.4 468.609 44.2C468.609 43.5333 469.009 42.7333 469.809 41.8C470.743 40.8667 471.543 40.4 472.209 40.4C472.876 40.4 473.476 40.6 474.009 41L493.409 54.4C493.676 54.6667 493.943 55 494.209 55.4C494.476 55.8 494.476 56.3333 494.209 57C493.543 58.6 492.609 59.4 491.409 59.4ZM514.806 142.4C510.273 142.4 507.073 141.133 505.206 138.6C503.34 135.933 502.406 132.667 502.406 128.8C502.406 125.6 502.873 122.133 503.806 118.4C504.873 114.533 506.206 110.733 507.806 107C507.94 101.8 509.34 96.6667 512.006 91.6C514.806 86.5333 518.54 82.3333 523.206 79C528.006 75.6667 533.606 74 540.006 74C546.273 74 550.606 75.8 553.006 79.4C555.54 83 556.806 87.2667 556.806 92.2C556.806 95.1333 556.473 98.1333 555.806 101.2C555.14 104.133 554.273 106.933 553.206 109.6C552.14 112.267 550.806 115 549.206 117.8C547.606 120.467 545.806 123.133 543.806 125.8C547.806 125.133 551.273 123.867 554.206 122C557.273 120 560.34 117.267 563.406 113.8C566.473 110.333 570.073 105.933 574.206 100.6C575.006 99.6667 575.873 99.2 576.806 99.2C577.873 99.2 578.74 99.5333 579.406 100.2C580.206 100.867 580.606 101.733 580.606 102.8C580.606 103.6 580.34 104.333 579.806 105C575.94 110.333 572.006 115.133 568.006 119.4C564.14 123.667 559.74 127 554.806 129.4C549.873 131.8 543.94 133 537.006 133C533.806 135.8 530.34 138.067 526.606 139.8C522.873 141.533 518.94 142.4 514.806 142.4ZM526.406 90.6C524.806 91.8 522.873 94.2 520.606 97.8C518.34 101.4 516.273 105.333 514.406 109.6C514.673 113.733 516.34 117.467 519.406 120.8C522.606 124 527.473 125.8 534.006 126.2C538.806 121.533 542.673 116.067 545.606 109.8C548.54 103.4 550.006 97.6667 550.006 92.6C550.006 89.1333 549.206 86.3333 547.606 84.2C546.006 82.0667 543.473 81 540.006 81C537.606 81 535.273 81.4 533.006 82.2C530.74 83 528.673 84.0667 526.806 85.4C527.473 86.0667 527.806 86.8667 527.806 87.8C527.806 88.8667 527.34 89.8 526.406 90.6ZM509.406 128.4C509.406 130.533 509.806 132.267 510.606 133.6C511.54 134.8 512.94 135.4 514.806 135.4C518.673 135.4 522.606 134.2 526.606 131.8C522.74 130.867 519.473 129.4 516.806 127.4C514.14 125.267 512.073 122.867 510.606 120.2C509.806 123.4 509.406 126.133 509.406 128.4Z" fill="black"/>
</mask>
<g mask="url(#mask0_0_1)">
<path d="M55.3651 68.636C54.762 68.636 54.1545 68.6128 53.5519 68.636C52.9961 68.6573 52.8947 70.3872 52.5 70.5C51.6578 70.7406 49.9883 69.9628 49.2148 70.5C48.8922 70.724 49.6119 70.8082 49.2148 70.8612C48.3132 70.9814 45 71.6029 44 71.5C41.7319 71.4175 42.504 71.6029 40.5301 71.6029C39.5 70.5 39 71.5 37.934 71.4175C37.5 70 37.0032 70.9137 36.4917 70.717C35.5 69.5 34.0291 69.4406 33.5 68.5C32 67.5 31.5 66 31 65C30.5 63.5 30.2531 61.9523 30.5 60.5C30.6126 59.8378 30.9512 59.3648 30.5578 58.7254C31 57.5 31 56.0135 31 55C31.5 54 31.1626 52.9813 31.8043 52C33 51.5 31.4112 50.7786 31.8043 50.3704C32.1848 49.9753 33.2374 49.9202 33.5 49.5C33.9126 48.8398 33.4878 47.961 33.9574 47.3107C34.4202 46.67 35.5281 46.1404 36 45.5C36.336 45.0439 36.1937 44.9594 36.5 44.5C36.9404 43.8393 37.4915 42.742 38.0783 42.2215C39.9133 40.5937 41.2252 39.2505 43 37.5C44.3285 36.1897 46.3999 34.9044 48.0094 33.9387C50.5 31 52.5 31.5 55 29.5C55.4254 29.1297 56.3442 28.6776 56.8692 28.561C57.5515 28.4094 58.2508 27.8527 58.9502 27.6132C60.5737 27.0572 62.3066 26.2822 64 26C64.7047 25.8825 65.3242 25.5221 66 25.5C67.1739 25.4615 68.329 24.64 69.5 24.5C71.3561 24.2781 72 25.5 73.5 24C76 24.5 80.5632 24.9196 82.9738 26.3151C83.7825 26.7834 84.6767 26.6568 85.4471 27.2217C86.0507 27.6644 86.8743 28.3564 87.3427 28.9525C89 30 89.7443 30.8665 90.5 32C91.5 32.5 92.5 33 92.5 34.5C92.8803 35.002 93.9055 37.1774 94.1214 37.771C94.4253 38.6068 94.5815 39.3989 94.9456 40.2229C96 42.5 95 43.5 96 44C96.0082 44.3516 95.3725 45.6654 95.5 46C95.6847 46.4849 97 45.9054 97 46.5C97 47.1388 95.967 48.3736 96 49C96.0284 49.5391 97 49.9259 97 50.5C97.5 51 97 52.5 96 52.5C96 53.7362 97 53.2638 97 54.5C96 54.5 96.5 57.7212 96.5 59C98 59.5 97.5 62.6627 97.5 63.5C98.5 63 96.3704 63.0767 96 63.5C95.6095 63.9463 96.9053 64.9791 97 65.5C97.138 66.2589 96.5 67.2298 96.5 68C98 67.5 96.5 68.8114 96.5 69.5C96.5 72.2021 96.5321 74.8137 96.5321 77.4957C96.5321 79.8774 96.3 81.1113 96.3 83.5C96.3 86.1751 96.1612 89.738 96.1612 92.4131C96.1612 95.4323 95.5 99 95.4194 101.5C95.3485 103.701 95.5 103.5 95.5 106C95 111.5 95.5 114 95.5 115C95 114.5 95.5 121.5 96 123C95 125.5 97.5 125.974 96.5 127.474C96.6378 128.148 95.9037 129.063 95.9758 129.748C95.9998 129.976 97.4277 129.801 97.5 130C97.6295 130.356 96.2848 130.551 96.3672 130.922C96 134.5 98.201 132.852 98.201 134.023C97.5 136.5 98.5485 135.311 98.7161 136.094C98.865 136.789 99.3136 137.155 99.3136 137.897C99.3136 138.343 100.47 138.555 100.5 139C100.534 139.517 99.8656 140.111 100.055 140.585C100.339 141.294 102.5 141 102 142.5C105 141.5 103.404 144.139 104 145C104.923 146.333 106.165 144.697 107.5 145C108.193 145.157 109.5 144.5 109.5 145.5C109.996 145.513 110.608 145.362 111 145C111.695 144.358 112.583 144 113.5 144C114 146 115.319 143.106 115.656 142.896C116.234 142.535 116.976 141.953 117.618 141.739C117.932 141.635 118.295 142.464 118.599 142.182C118.808 141.988 119.072 141.829 119.341 141.739C119.744 141.605 119.685 140.759 120 140.5C122 140 121.5 138.5 124 137C124 142.5 125.379 134.4 128 133.5C128.5 137.5 128.963 131.537 130 130.5C131.5 133 135 119 134.196 126.585C135.072 125.6 135.253 124.423 136.03 123.412C136.527 122.766 136.485 121.606 137 121C138 113.5 138.216 121.536 138.5 121C141 115.5 140 114 142 112.5C143.5 117 141.815 110.527 143 110C146.5 108.5 143.96 107.905 144 107.5C143 107 146.391 105.236 145.117 104.982" stroke="#DDA520" stroke-width="7.6" stroke-linecap="round"/>
<path d="M3 166.36C4.0076 165.086 5.43841 163.755 6.27036 162.368C6.75341 161.563 6.70552 160.553 7.23223 159.675C8.77251 157.108 8.80763 155.594 11.5 153.5C12.2412 152.923 11.4091 150.618 11.753 149.816C12.1327 148.93 10.5544 152.412 11 151.5C12.3256 148.786 17.7942 143.42 19.2556 140.63C20.2013 138.825 22.7765 136.924 24.2092 135.412C25.4542 134.098 26.4973 132.214 27.9124 131.132C29.5919 129.847 31.4317 127.625 32.6496 125.865C34.1216 123.739 35.7869 121.858 37.5311 119.95C37.7609 119.699 38.9665 117.928 39.3587 117.882C40.9401 117.696 42.5846 115.404 43.5909 114.227C44.8387 112.767 47.2844 108.603 49.314 108.359C51.0099 108.156 51.6261 106.754 52.9691 105.859C54.2899 104.978 55.5172 104.263 56.6723 103.165C57.9889 101.915 59.1571 100.518 60.5438 99.2697C62.3228 97.6686 63.9386 95.9111 66.0746 94.8692C69.1518 93.3681 73.2144 91.1595 75.525 88.5449C76.9635 86.917 79.8342 86.5369 81.1519 84.8898C81.9085 83.944 83.7704 82.7295 85.0475 82.3889C87.8894 81.6311 90.5996 79.6929 93.4398 78.7098C94.3675 78.3886 94.9645 77.5137 95.8444 77.2429C96.8591 76.9307 97.6633 76.9355 98.6339 76.3532C99.7801 75.6654 101.155 75.7012 102.313 74.9825C103.772 74.0772 104.925 73.1056 106.545 72.4576C107.794 71.9583 109.662 70.9526 110.441 69.7403C112.292 66.8606 117.229 66.4327 118.905 63.4401C119.303 62.7301 120.336 62.5447 121.069 62.2378C122.321 61.7139 122.895 60.717 123.859 59.785C126.384 57.343 129.592 55.1632 132.66 53.4847C133.63 52.9541 133.751 51.8201 134.584 51.3205C135.478 50.7838 136.817 50.9839 137.566 50.1422C138.313 49.3016 138.804 48.615 139.778 47.954C141.155 47.0195 141.659 45.2087 143.241 44.5874C145.073 43.8676 145.181 43.172 146.294 41.5576C147.164 40.2973 148.538 39.9966 149.685 39.1048C151.106 37.9997 152.269 36.0832 153.196 34.56C154.131 33.0243 156.715 31.3101 157.091 29.6785C157.356 28.533 159.676 26.9273 160.458 25.7829C161.906 23.6624 164.286 22.4533 166.349 21.1178C169.311 19.2017 171.446 15.9726 174.405 14" stroke="#DDA520" stroke-width="15" stroke-linecap="round"/>
<path d="M187.104 88.4624C189.38 90.4133 180.588 98.2856 179.072 100.582C178.155 101.972 176.01 103.299 175.826 104.958C175.611 106.893 173.35 107.724 173.253 109.431C173.053 112.935 171.521 116.069 171.521 119.723C171.521 122.553 171.115 125.702 171.545 128.5C172.304 133.433 177.24 131.849 179.938 129.871C180.541 129.429 181.317 129.685 181.958 129.294C183.101 128.595 183.466 127.051 184.747 126.649C186.649 126.051 186.961 125.487 188.186 123.979C188.836 123.179 190.407 121.029 191.336 120.925C192.577 120.788 192.399 119.585 193.572 119.194C194.312 118.947 193.963 118.114 194.077 117.487C194.229 116.654 195.033 116.435 195.424 115.731C196.179 114.373 197.181 112.285 198.358 111.403" stroke="#DDA520" stroke-width="15" stroke-linecap="round"/>
<path d="M201.82 68.9845C201.719 67.259 201.188 67.9349 200.522 68.7681C199.94 69.4949 200.089 70.1938 200.089 71.1487" stroke="#DDA520" stroke-width="15" stroke-linecap="round"/>
<path d="M222.557 63.5011C223.311 64.3342 223.419 65.2989 223.842 66.2963C224.149 67.0188 224.573 67.6263 224.72 68.4183C225.052 70.2205 225.495 71.768 225.495 73.611C225.495 76.4301 225.671 79.2194 224.495 81.8541C223.869 83.2561 223.739 84.748 223.251 86.1899C222.812 87.4845 222.219 88.7085 221.741 89.9849C221.006 91.9443 219.76 93.662 219.109 95.6367C218.473 97.5643 217.404 99.4979 216.303 101.187C215.113 103.012 214.545 105.158 213.283 106.951C211.97 108.817 210.93 110.914 209.662 112.817C208.484 114.583 209.401 117.128 207.866 118.632C207.224 119.261 207.034 120.387 206.877 121.243C206.67 122.369 206.322 123.001 205.857 124.018C204.872 126.172 203.686 127.954 202.296 129.874C201.956 130.344 201.579 130.937 201.296 131.445C200.882 132.189 200.007 132.809 199.827 133.649C199.645 134.501 199.268 135.275 199.083 136.107C198.949 136.71 199.03 137.198 198.766 137.791C198.607 138.15 198.704 138.582 198.674 138.964C198.626 139.594 198.12 141.389 198.062 140.759C198.01 140.179 198.342 139.357 198.521 138.852C199.13 137.138 199.866 135.451 200.562 133.771C201.487 131.538 202.261 129.237 203.194 127.017C204.127 124.798 205.56 122.847 206.479 120.611C207.983 116.953 210.223 113.782 213.09 111.052C214.212 109.983 215.204 108.751 216.324 107.675C217.702 106.35 219.478 105.494 220.945 104.288C222.587 102.937 224.107 101.597 225.679 100.166C226.643 99.2884 227.668 98.4961 228.607 97.5853C229.321 96.8921 230.26 96.5571 230.994 95.902C231.785 95.1952 232.692 94.6695 233.432 93.9024C234.361 92.9396 235.548 92.4238 236.493 91.5152C237.157 90.8762 237.904 90.2655 238.513 89.5769C239.254 88.7377 239.948 88.2848 240.839 87.5977C241.429 87.142 242.143 86.684 242.859 86.4551C243.563 86.2297 243.812 85.8122 244.368 85.3737C245.28 84.6551 246.246 84.2918 247.245 83.772C248.009 83.3747 248.479 82.8154 249.347 82.5172C251.097 81.9157 253.014 81.1286 254.448 80.028C255.27 79.3967 258.733 79.152 258.733 80.5789C258.733 81.3108 258.849 82.167 258.641 82.8743C258.373 83.7843 257.759 84.5388 257.488 85.4349C257.224 86.3066 256.59 87.2461 256.202 88.1078C256.079 88.3814 256.162 88.8202 256.162 89.1076C256.162 89.7119 255.74 89.9597 255.631 90.5052C255.489 91.2137 255.164 92.7385 254.591 93.2597C254.19 93.6241 254.254 94.0436 254.019 94.4737C253.779 94.9147 253.247 95.4294 253.081 95.8612C252.779 96.6444 252.12 97.4368 251.897 98.2076C251.546 99.4214 251.122 100.467 250.663 101.615C250.414 102.237 250.298 102.759 249.816 103.268C249.496 103.606 249.009 103.927 248.816 104.359C248.612 104.818 248.112 104.961 247.755 105.267C247.233 105.715 247.19 106.576 246.756 107.124C245.651 108.518 244.91 110.191 244.307 111.858C244.038 112.603 243.495 113.365 243.093 114.102C242.586 115.031 241.898 116.145 241.644 117.203C241.545 117.619 241.267 117.954 241.145 118.366C240.967 118.965 241.146 119.456 240.737 120.019C240.22 120.729 240.186 121.577 240.186 122.447C240.186 123.425 240.001 124.154 239.839 125.089C239.54 126.808 238.656 128.274 238.717 130.017C238.742 130.749 239.748 131.43 240.349 131.731C240.724 131.918 241.189 131.897 241.563 132.098C241.844 132.249 242.224 132.625 242.501 132.71C243.84 133.122 245.758 132.992 247.164 132.914C247.714 132.884 247.881 132.369 248.347 132.2C248.76 132.05 249.223 132.256 249.653 132.057C250.561 131.638 252.09 131.093 252.764 130.343C253.097 129.973 253.876 129.879 254.325 129.65C254.963 129.325 255.369 128.755 256.06 128.517C256.656 128.312 257.123 127.935 257.692 127.67C258.266 127.403 258.449 126.763 258.957 126.405C259.838 125.785 260 125.385 260.569 124.549C260.854 124.129 261.349 123.963 261.671 123.549C262.102 122.995 262.647 122.518 263.058 121.957C263.846 120.883 264.817 120.395 265.955 119.621C266.467 119.274 266.653 118.677 267.139 118.305C267.652 117.912 268.24 117.517 268.71 117.081C269.104 116.715 270.601 115.533 270.669 115.061C270.766 114.38 270.915 113.953 271.577 113.623C271.962 113.43 272.219 112.389 272.423 111.98C272.651 111.524 273.864 111.062 274.341 111.062" stroke="#DDA520" stroke-width="15" stroke-linecap="round"/>
<path d="M349.486 100.379C351.168 99.5383 352.444 96.8152 353.213 95.125C353.758 93.9255 353.341 91.887 353.341 90.5989C353.341 88.4335 353.341 86.2681 353.341 84.1026C353.341 82.2015 353.548 81.168 352.199 79.8193C351.299 78.9191 350.536 79.0483 349.286 79.0483C347.76 79.0483 346.066 78.9082 344.646 79.5766C344 79.8808 343.506 80.2471 342.818 80.4618C340.081 81.3173 337.209 84.6434 335.865 87.1295C335.094 88.5569 334.049 90.5067 332.895 91.6269C331.748 92.7414 329.871 94.4064 329.183 95.8674C328.479 97.3643 326.647 97.551 325.443 98.4374C324.287 99.2877 323.135 100.326 322.044 101.264C321.503 101.731 320.701 102.241 320.388 102.892C320.208 103.268 319.761 103.447 319.517 103.791C318.753 104.87 318.063 105.989 317.247 107.033C316.418 108.094 315.841 109.157 315.32 110.373C315.032 111.044 314.48 111.416 314.306 112.201C313.991 113.617 313.612 114.925 313.007 116.256C312.345 117.711 312.221 118.745 312.221 120.296C312.221 122.602 311.595 125.914 312.336 128.135C313.169 130.634 314.783 132.169 316.348 134.203C317.185 135.291 318.016 135.309 319.046 136.045C319.968 136.703 320.028 137.13 321.273 137.13C323.883 137.13 326.765 137.474 329.34 136.987C333.319 136.234 336.868 134.842 340.548 133.161C342.702 132.177 344.411 130.541 346.117 128.949C347.814 127.364 349.798 126.032 351.671 124.665C354.417 122.661 357.489 120.184 359.652 117.541C361.181 115.671 360.535 116 361.5 114C362.5 113 364 107.5 364.5 106.5" stroke="#DDA520" stroke-width="15" stroke-linecap="round"/>
<path d="M374.192 82.3608C375.103 82.3608 376.051 82.1992 376.837 82.6828C377.185 82.8968 377.632 82.697 378.01 82.7978C378.381 82.8967 379.587 82.5 380 82.5C382.135 82.5 382.706 83.5 384.841 83.5C386.206 83.5 386.635 82.5 388 82.5C388.67 82.5 390.33 82.0186 391 82C391.627 81.9826 392.441 82.1442 393 82C394.596 81.5881 395.948 81.6295 397.571 81.5213C398.321 81.4713 397.82 79.2758 398.5 79C399.399 78.6351 401.235 79.9311 402.183 79.7158C402.766 79.5831 403 77.7252 403.5 77.5C404.524 77.0393 405.388 77.9463 406.392 77.4387C406.974 77.1443 406.552 75.3445 407.094 75C407.728 74.5963 409.391 75.6585 410.095 75.3687C411.22 74.9055 410.485 73.0749 411.5 72.5C412.411 71.9836 414.778 72.8175 415.661 72.2522C416.21 71.9011 412.188 72.6243 412.5 72C413.064 70.8724 415.266 71.0012 416 70C416.869 68.8154 417.244 69.9175 418 68.5952C418.29 68.0873 420.61 66.39 421 66C421.501 65.4988 422.93 64.482 423.5 64C424.228 63.384 425.322 62.1528 426 61.5C426.405 61.1103 427.522 60.2899 428 60C429.129 59.3158 429.923 58.1134 430.5 57C430.797 56.4264 431.895 55.9839 431.957 55.3356C432.008 54.7986 432.468 54.6516 432.566 54.2086C432.65 53.8326 433.181 53.4343 433.383 53.0816C433.592 52.7155 433.534 52.3153 433.854 52.0466C434.273 51.6951 434.446 51.1223 434.751 50.678C435.326 49.8425 434.714 52.1287 435.5 51.5C437.192 50.1468 439.275 47.5299 440 45.5C440.532 44.0105 441.705 43.6248 442 42C442.176 41.0293 444.291 39.2212 444.5 38.2235C444.652 37.4992 445.5 37.1851 445.5 36.5C445.5 35.2946 446.497 33.0782 447 32C447.722 30.4523 447.47 27.672 447.47 25.8494C447.47 24.6461 447.217 23.1956 447 22C446.809 20.9487 445.468 20.4973 444.541 19.9917C444 21.5 443.152 19.4131 442.5 19.5C441.678 19.6096 441.083 18.8113 440.225 18.8113C438.574 18.8113 436.295 19.3341 435 20.5C433.018 22.2841 431.148 23.2205 429.059 24.9179C428.574 25.3116 428.574 25.1364 428 25.5C427.153 26.0366 426.2 26.8776 425.5 27.5C424.631 28.2727 423.947 29.3162 423 30C422.094 30.654 421.82 31.7427 421 32.5C420.635 32.837 420.315 33.3833 419.87 33.5544C419.255 33.7909 418.984 34.3949 418.559 34.8194C417.358 36.0203 415.909 38.0183 415.339 39.6725C415.165 40.1777 414.369 40.1122 414 40.5C413.472 41.0548 412.961 41.965 412.5 42.5C411.67 43.4625 411.962 44.1822 411 45C409.655 46.143 408.631 48.1114 407.5 49.5C407.019 50.09 406.894 50.9257 406.5 51.5C406.211 51.9212 405.363 53.1598 405 53.5C404.412 54.0516 404.887 54.7334 404.287 55.2666C403.358 56.0927 402.191 56.5003 401.309 57.4286C400.783 57.9825 401.369 58.8417 401 59.5C400.508 60.3787 399.688 60.6525 399.5 61.5C399.192 62.8876 397.749 64.3229 397 65.5C396.494 66.2948 395.602 67.0268 395.5 68C395.391 69.0397 394.871 69.8216 394.19 70.6537C394 70.887 393.888 71.3024 393.857 71.5967C393.808 72.0636 393.239 72.4301 393.029 72.8502C392.557 73.7947 390.5 75.3788 390.5 76.5C390.5 77.242 390.727 77.7439 390.246 78.3587C389.36 79.4908 388.061 80.042 388.061 81.5328C387.5 83 386.148 82.0113 386 83C385.828 84.1471 385.549 86.4629 384.841 87.3288C384.215 88.0933 384.241 89.6073 383.311 90.2268C382.772 90.5865 382.677 91.4491 382.334 92.0208C381.415 93.5522 379.781 95.4345 379.781 97.2879C379.781 98.2684 379.051 99.6545 378.5 100.5C377.891 101.434 377.812 103.003 377 103.889C375.856 105.137 376.12 107.671 375 109C374.421 109.688 375.636 109.926 375.181 110.766C374.791 111.486 374.22 112.294 374.008 113.089C373.825 113.776 372.448 115.341 372 116C370.75 117.838 370.974 119.389 370.661 121.5C370.553 122.229 369.913 122.793 369.845 123.5C369.774 124.233 369.464 124.831 369.155 125.5C369 125.835 369.876 125.634 369.845 126.084C369.778 127.045 369.785 127.324 369.155 128.108C368.346 129.114 370.126 130.44 369.5 131.5C369.247 131.929 367.568 132.04 367.568 132.559C367.568 133.029 368.073 133.25 367.959 133.709C367.744 134.566 366.533 135.444 366.533 136.388C366.533 137.208 367.568 137.744 367.568 137.5C367.568 136.79 366.456 134.414 366.544 133.709C366.62 133.104 367.305 132.806 367.361 132.133C367.407 131.58 367.578 131.506 367.959 131.098C368.377 130.649 368.221 129.627 369.017 129.557C369.476 129.517 371 129.61 371 129C371 127.711 372.242 128.206 372.5 127C372.657 126.266 374.002 124.646 374.5 124C375.551 122.638 376.246 122.215 376.5 120.5C376.581 119.951 378.196 119.224 378.685 118.844C379.389 118.296 380.028 116.773 380.5 116C380.916 115.32 382.118 115.2 382.5 114.5C382.762 114.02 381.69 112.425 381.897 111.916C382.014 111.628 384.335 112.259 384.5 112C384.753 111.603 385.87 110.469 386 110C386.181 109.349 383.136 109.182 383.61 108.707C384.396 107.922 388.622 108.106 389.521 107.5C390.563 106.798 388.376 105.578 389.5 105C389.938 104.775 390.146 104.332 390.547 104.057C391.152 103.64 392.713 103.899 393.328 103.5C393.924 103.112 392.698 101.093 393.328 100.703C396.5 101.5 394.954 99.8368 395.5 99.5C396.546 98.8547 399.5 99.5 398 97.2879C402.183 98 399.256 96.1251 399.791 95.6549C400.452 95.0735 403.905 92.6934 404.5 92.0208C409 92.5 403.5 97.2879 404.5 91.5C404.91 90.9534 410.073 89.7337 410.5 89.3068C410.945 88.8616 406.454 89.6585 407.094 89.3068C408.327 88.6281 409.87 88.0694 411 87.3288C414.5 88 413.174 85.8632 414.041 85.339C417.5 85.5 415.556 84.2994 416.8 84.0168C418.667 83.5925 419.496 82.06 421.285 81.5098C421.695 81.3836 421.804 80.7481 422.216 80.7048C422.553 80.6693 424.161 79.5 424.5 79.5C425.294 79.5 424.838 80.7048 425.632 80.7048C426.868 80.7048 426 80.115 426 81.5C426 83.2574 424 92.5 424 86C424 83.7639 422.216 89.7024 421.388 91.9518C420.365 92.9408 420.594 92.3456 420.365 92.9408C420.126 93.5608 419.888 94.0872 419.525 94.6429C418.76 95.8135 417.5 98 417.329 98.3229C415 101 416.943 100.968 414.5 102C413.943 106.468 413.144 103.415 413 104C412.764 104.962 414 107 411.728 106.5C409.5 107.5 412.272 111.833 411.5 109.5C407 111 406 114 409.5 113C411 117 409.272 112.537 408.715 113.779C408.377 114.533 404.943 116.5 407.5 117.5C402 121 406 119.633 406 120C407 122.5 406.828 118.106 406.53 118.701C406.105 119.552 403.519 122.251 403 123C402.67 123.476 406.39 123.927 406 124.5C405.609 125.075 407.5 128.5 403.586 126.5C403.513 127.6 402.976 127.803 402.976 128.91C402.976 129.872 403.586 129.793 403.586 130.755C403.586 131.933 408.435 130.636 404.751 132.535C406.435 134.136 407.486 133.601 408.5 134C410.109 134.632 411.253 134 413 134C413.524 134 414.567 133.325 415 133C415.59 132.557 416.47 133.153 416.995 132.616C417.645 131.951 418.261 131.554 419 131C420.564 129.827 422.851 129.162 423.827 127.455C424.023 127.112 424.67 126.632 425 126.5C429 124.9 436.444 112.741 437 112" stroke="#DDA520" stroke-width="7.6" stroke-linecap="round"/>
<path d="M495.121 85.7262C494.864 85.7262 494.26 85.5547 494.195 85.2645C494.121 84.9294 494.273 84.8921 494.195 84.5906C494.097 84.2067 494.005 83.9072 494.005 83.4932C494.005 83.0709 493.935 82.6733 493.919 82.2623C493.903 81.8776 493.883 80.797 493.527 80.4921C493.376 80.362 493.108 80.168 493 80C492.852 79.7703 492.829 79.7365 492.673 79.4997C492.398 79.0787 492.227 78.5202 491.896 78.1685C491.812 78.0798 491.557 77.8819 491.524 77.7725C491.452 77.5411 491.455 77.3209 491.337 77.095C491.128 76.6944 490.704 76.3171 490.378 76.0024C490.058 75.6929 489.366 75.7617 489 75.5C488.576 75.1971 488.782 74.6275 488.346 74.3611C488.193 74.2676 487.662 74.4272 487.5 74.3611C487.244 74.2568 487.639 73.9736 487.306 73.9603C487.042 73.9498 486.926 73.7542 486.695 73.6597C486.381 73.5311 486.105 73.445 485.765 73.445C485.344 73.445 485.059 73.2732 484.639 73.2732C484.003 73.2732 483.401 73.1015 482.754 73.1015C481.754 73.1015 480.751 73.0604 479.767 73.1874C479.301 73.2475 478.777 73.5225 478.317 73.6549C477.733 73.8229 477.163 74.0527 476.59 74.2514C476.315 74.3464 476.037 74.3036 475.764 74.4327C475.621 74.5005 475.505 74.583 475.349 74.6283C474.87 74.7672 474.484 75.0477 474.013 75.1913C473.663 75.2981 473.316 75.3342 472.992 75.5157C472.645 75.71 472.115 75.7357 471.818 75.9785C471.494 76.2437 471.16 76.4728 470.788 76.6799C470.203 77.0055 469.439 77.1228 468.894 77.4862C468.73 77.595 468.48 78.0243 468.374 78.2067C468.02 78.8123 467.096 79.7941 466.436 80.0579C465.934 80.2587 465.594 80.9274 465.129 81.2126C464.841 81.3894 464.628 81.6382 464.356 81.8233C464.103 81.9961 463.791 82.0852 463.564 82.2909C462.88 82.9099 462.106 83.4165 461.427 84.0419C460.978 84.4548 460.563 84.907 460.129 85.3349C459.65 85.8071 458.868 86.3645 458.54 86.9667C457.904 88.1318 456.749 88.8802 455.987 89.8867C455.476 90.562 454.78 91.3412 454.575 92.1626C454.538 92.3114 454.373 92.4008 454.279 92.5109C454.089 92.7352 454.01 92.9849 453.783 93.217C453.389 93.6202 453.184 94.1766 452.791 94.5911C452.202 95.2121 451.407 95.4712 451.068 96.3183C450.791 97.0107 450.367 97.6498 449.88 98.2459C449.705 98.4602 449.546 98.7005 449.379 98.9043C449.166 99.1645 449.23 99.3633 449.083 99.6677C448.93 99.9869 448.533 100.136 448.334 100.441C448.239 100.587 448.214 100.907 448.096 101.008C447.549 101.477 447.017 102.061 446.55 102.626C446.005 103.285 445.838 104.137 445.262 104.787C444.767 105.346 444.384 105.845 443.916 106.414C443.526 106.889 443.237 107.509 442.933 108.027C442.521 108.73 442.078 109.467 441.531 110.069C441.4 110.212 441.481 110.355 441.426 110.527C441.346 110.775 441.095 110.895 440.987 111.119C440.876 111.348 440.155 112.93 439.942 112.693C439.836 112.576 439.815 113.948 439.794 114.134C439.758 114.452 439.445 114.275 439.221 114.368C438.838 114.528 438.117 114.766 438.019 114.993C437.921 115.22 438.167 115.273 438.086 115.5C438.038 115.633 438.91 116.081 438.5 116.5C438.359 116.801 438.333 117.181 438.086 117.398C437.628 117.798 437.342 120.38 436.998 120.89C436.187 123.39 435.58 126.019 435.58 128.839C435.58 132.918 436.206 128.496 436.206 132.575C436.206 132.955 436.139 133.48 436.5 133.5C436.831 133.518 436.792 133.844 437 134C437.455 134.342 437.776 134.082 438.086 134.545C438.304 134.873 438.214 135.342 438.615 135.576C438.823 135.697 439.058 135.775 439.269 135.9C439.569 136.079 439.813 136.409 440.128 136.521C440.728 136.734 440.918 136.998 441.583 136.998C442.361 136.998 443.138 136.998 443.916 136.998C445.071 136.998 446.04 136.74 446.984 136.087C447.446 135.767 447.927 135.385 448.42 135.108C448.818 134.885 449.238 134.697 449.632 134.469C449.828 134.356 449.93 134.177 450.128 134.068C450.663 133.776 451.177 133.417 451.712 133.114C452.217 132.829 452.833 132.506 453.258 132.103C453.621 131.759 454 131.437 454.37 131.101C454.684 130.814 454.921 130.451 455.267 130.199C455.503 130.027 455.774 129.928 455.997 129.736C456.394 129.394 456.822 129.128 457.237 128.81C457.759 128.411 458.157 127.904 458.64 127.465C459.189 126.966 459.798 126.546 460.324 126.019C460.656 125.688 460.909 125.296 461.245 124.97C461.938 124.297 462.808 123.655 463.5 123C463.868 122.651 464.056 122.17 464.461 121.863C465.541 121.046 466.425 119.96 467.486 119.134C467.974 118.755 468.382 118.236 468.927 117.932C469.135 117.816 469.287 117.577 469.395 117.369C469.617 116.94 469.88 116.653 470.301 116.396C470.905 116.027 471.268 115.522 471.809 115.079C472.356 114.629 472.821 114.025 473.388 113.6C473.66 113.396 474.068 112.899 474.199 112.564C474.309 112.284 474.437 112.198 474.652 111.987C475.012 111.635 475.214 111.143 475.588 110.823C476.187 110.309 476.787 109.551 477.253 108.919C477.713 108.295 478.347 107.89 478.737 107.225C479.039 106.711 479.36 106.21 479.615 105.679C479.897 105.09 480.427 104.704 480.879 104.253C481.269 103.863 481.63 103.403 481.962 102.965C482.506 102.246 483.347 101.62 484.09 101.118C484.532 100.82 484.713 100.361 485.078 99.9969C485.283 99.7914 485.609 99.5827 485.855 99.4244C486.072 99.285 486.063 99.1428 486.208 98.9711C486.376 98.7731 486.661 98.7 486.824 98.4797C487.117 98.0826 487.393 97.6937 487.773 97.3871C488.079 97.1411 488.177 96.9044 488.389 96.595C488.581 96.3147 488.912 96.1568 489.114 95.8937C489.408 95.5118 489.641 95.0907 489.968 94.7438C490.305 94.3867 491.17 92.7667 491.17 94.1092C491.17 94.8535 490.466 95.2997 490.398 96.0034C490.329 96.7132 489.789 97.4751 489.501 98.1314C489.124 98.9866 489.016 99.8864 488.556 100.736C487.888 101.971 487.372 103.201 486.638 104.391C486.443 104.706 486.156 104.965 485.989 105.298C485.865 105.546 485.864 105.697 485.588 105.851C485.172 106.084 484.708 106.812 484.476 107.24C484.195 107.759 483.812 108.26 483.489 108.762C483.163 109.267 482.599 109.545 482.41 110.112C482.369 110.237 482.177 110.307 482.096 110.432C481.947 110.66 483.138 110.77 483 111C482.798 111.337 482.235 112.281 481.962 112.564C481.721 112.814 480.931 112.642 480.931 113C480.931 113.305 481.64 113.747 481.5 114C481.377 114.221 480.678 114.281 480.569 114.5C480.372 114.894 481.18 115.128 480.931 115.5C480.785 115.72 480.569 116.175 480.569 116.442C480.569 117.308 479.957 118.019 480.149 118.884C480.308 119.602 478.934 120.713 478.975 121.5C479.025 122.444 478.5 123.554 478.5 124.5C478.5 124.892 478.72 125.109 478.7 125.5C478.2 126 478 126.408 478 127C478 127.5 477.752 129.036 477.783 129.23C477.841 129.592 477.709 130.368 477.783 130.719C477.843 131.006 477.846 132.055 478.7 132.198C480.5 132.5 481.16 129.23 480.092 130.213C480.18 130.502 481.659 132.146 482 132.198C482.526 132.279 482.118 131.33 482.649 131.33C483.008 131.33 483.379 131.357 483.737 131.32C484.16 131.277 484.574 130.911 484.949 130.719C486.043 130.159 487.372 129.931 488.384 129.23C488.774 128.96 488.759 128.137 489.2 127.942C489.576 127.776 490.057 127.651 490.378 127.389C491.3 126.634 492.687 125.879 493.5 125C494.1 124.352 494.753 123.964 495.5 123.5C495.756 123.341 495.706 123.078 495.894 122.823C496.188 122.422 496.533 122.208 497 122C497.423 121.812 497.734 121.349 498 121C499.036 119.637 500.186 118.607 501.371 117.398C501.767 116.994 502.051 116.48 502.502 116.133C502.826 115.884 503.137 115.535 503.375 115.203C503.637 114.838 503.819 114.434 504.139 114.115C504.382 113.872 504.506 113.701 504.616 113.371C504.789 112.85 505.17 112.476 505.379 111.963C505.635 111.334 505.973 110.735 506.41 110.231C506.791 109.791 507.329 109.348 507.626 108.867C507.84 108.522 508.214 108.067 508.605 107.97" stroke="#DDA520" stroke-width="8" stroke-linecap="round"/>
<path d="M526.101 87.7022C525.122 87.7022 523.706 88.0256 523.322 89.1027C523.133 89.6322 522.926 89.9472 522.6 90.3828C522.425 90.6162 522.384 91.0164 522.282 91.2908C522.161 91.6166 521.977 91.9422 521.889 92.2755C521.687 93.0392 521.029 93.76 520.641 94.4528C520.251 95.1503 519.938 95.923 519.46 96.5644C518.261 98.17 516.811 99.478 515.411 100.897C514.607 101.713 514.382 103.161 513.59 104C513.137 104.479 512.347 104.49 512.129 105.109C511.79 106.071 511.204 106.882 510.86 107.844C510.608 108.551 510.071 109.116 509.93 109.836C509.672 111.156 509.076 112.32 508.355 113.479C508.031 113.999 507.505 114.709 507.49 115.35C507.479 115.851 507.387 116.06 507.189 116.515C506.502 118.097 506.5 119.242 506.5 121C506.5 121.755 506.265 122.41 506.265 123.156C506.265 124.041 505.619 125.038 505.619 125.913C505.619 126.568 505.619 127.223 505.619 127.877C505.619 128.103 505.623 128.302 505.723 128.512C505.941 128.966 505.915 129.403 505.915 129.901C505.915 130.576 505.871 131.169 506.265 131.739C506.594 132.216 506.268 133.256 506.5 133.774C506.944 134.768 508.175 135.218 508.902 136.028C509.068 136.214 508.391 137.27 508.5 137.5C508.665 137.849 509.603 137.573 509.711 137.943C509.945 138.744 510.836 138.459 511.5 139C511.899 139.324 513.537 138.971 514 139.196C514.609 139.491 515.84 138.468 516.495 138.468C517.968 138.468 517.711 138.803 519.091 138.162C519.472 137.985 519.5 138.162 519.5 138.162C519.5 138.162 520.453 138.366 520.691 138.162C520.985 137.91 521.114 138.75 521.38 138.468C521.552 138.286 521.813 138.303 522.02 138.162C522.557 137.796 522.988 137.357 523.579 137.051C524.49 136.581 525.541 136.313 526.391 135.711C527.178 135.153 528.235 134.818 529.099 134.376C529.672 134.083 530.206 133.913 530.827 133.774C531.692 133.582 532.581 132.918 533.191 132.308C533.627 131.872 534.165 131.519 534.41 130.919C534.565 130.54 534.582 129.76 534.919 129.502C535.166 129.313 535.132 129.047 535.324 128.818C535.566 128.53 535.902 128.224 536.194 127.987C537.048 127.291 538.018 126.739 538.858 126.028C539.435 125.54 539.832 124.75 540.28 124.114C541.024 123.057 541.789 122.006 542.545 120.963C542.867 120.518 543.152 120.08 543.377 119.584C543.569 119.158 544.062 118.865 544.274 118.402C544.602 117.686 545.172 117.106 545.576 116.433C545.998 115.729 546.233 114.954 546.648 114.245C547.378 112.997 548.496 111.811 549.022 110.47C549.141 110.167 549.398 109.938 549.492 109.639C549.614 109.256 549.72 108.943 549.881 108.572C550.359 107.469 551.023 106.458 551.456 105.328C551.732 104.61 551.772 103.855 552.042 103.162C552.238 102.656 552.06 101.983 552.146 101.45C552.269 100.684 552.392 99.946 552.392 99.1683C552.392 98.2061 552.786 97.3903 552.786 96.4495C552.786 95.556 553.092 94.8174 553.169 93.955C553.267 92.8516 553.408 91.7998 553.672 90.7164C553.808 90.1577 553.169 89.6748 553.169 89.1027C553.169 87.6867 552.741 86.1615 552.042 84.9068C551.326 83.6224 551.082 82.4276 550 81.5C549.158 80.7783 547.873 80.2028 547.02 79.4528C546.825 79.2814 548.206 79.1809 548 79C547.789 78.8147 546.31 78.4142 546.112 78.2164C545.91 78.015 545.663 77.8608 545.444 77.6803C545.288 77.5513 544.222 77.7345 544 77.6803C543.204 77.4862 543.398 77.1661 542.589 77.1661C541.697 77.1661 540.859 77.3941 540 77.6803C538.527 78.1712 536.567 77.4982 535 77.6803C533.441 77.8616 532.105 79.4528 530.5 79.4528C529.439 79.4528 528.479 79.9602 527.5 80.3171C526.812 80.5682 526.312 81.7061 525.587 81.816C525.314 81.8572 525.129 81.904 524.903 82.0512C524.06 82.5993 523.192 83.0758 522.348 83.6103C521.739 83.9961 521.25 84.2376 520.926 84.9068C520.522 85.7414 519.941 86.4278 519.399 87.1771C518.814 87.9866 518.394 88.8968 517.868 89.7427C517.614 90.1503 517.431 90.5952 517.178 91.0009C516.897 91.4542 516.492 91.8103 516.216 92.2701C515.885 92.8203 515.474 93.3078 515.269 93.9221C515.118 94.3761 515.07 94.7508 514.761 95.1421C514.38 95.6239 513.977 96.092 513.59 96.5698C513.259 96.9788 512.963 97.3932 512.764 97.8828C512.649 98.1654 512.635 98.4863 512.49 98.7526C512.299 99.104 512.156 99.4859 511.943 99.8248C511.675 100.253 511.196 100.643 511.134 101.171C511.07 101.707 510.937 102.198 510.937 102.746C510.937 103.92 510.937 105.095 510.937 106.269C510.937 106.985 510.65 107.671 510.641 108.413C510.634 109.019 510.641 109.624 510.641 110.23C510.641 110.567 510.587 110.848 510.816 111.116C511.12 111.47 510.986 112.013 511.325 112.379C511.541 112.614 511.409 113.108 511.44 113.397C511.472 113.704 511.601 113.996 511.675 114.294C511.833 114.925 512.04 115.551 512.107 116.203C512.175 116.862 512.05 117.313 512.501 117.828C512.759 118.122 512.987 118.464 513.245 118.769C513.638 119.233 513.882 119.825 514.29 120.284C514.726 120.775 515.072 121.201 515.368 121.816C515.61 122.32 516.119 122.756 516.495 123.156C516.685 123.359 516.984 123.554 517.124 123.791C517.225 123.963 517.238 124.135 517.386 124.283C517.753 124.65 518.372 124.892 518.814 125.18C519.462 125.604 520.042 125.943 520.734 126.302C521.083 126.482 521.474 126.471 521.817 126.657C522.114 126.819 522.405 127.113 522.72 127.226C523.519 127.514 524.327 127.811 525.149 128.069C525.98 128.33 526.953 128.328 527.753 128.671C528.307 128.908 528.905 128.753 529.46 129.015C530.092 129.314 530.783 129.256 531.467 129.256C532.324 129.256 533.181 129.256 534.038 129.256C534.824 129.256 535.648 129.19 536.429 129.278C536.92 129.333 537.356 129.567 537.84 129.628C538.335 129.69 538.84 129.593 539.328 129.715C539.742 129.819 540.044 129.945 540.477 129.945C540.826 129.945 541.108 129.962 541.418 130.142C542.073 130.523 543.263 129.5 544 129.5C544.899 129.5 545.624 128.898 546.5 128.671C547.711 128.356 548.854 128.47 550 127.987C551.099 127.523 552.119 127.904 553.048 127.122C555.165 125.343 557.625 124.017 559.7 122.21C560.918 121.15 562.412 120.448 563.568 119.316C564.211 118.687 564.305 117.57 565 117C565.734 116.399 566.452 115.783 567 115C567.553 114.21 568.389 113.746 569 113C569.587 112.283 570.482 111.732 571.013 110.963C571.604 110.108 572.115 109.203 572.775 108.397C573.274 107.786 573.813 107.25 574.263 106.597C574.649 106.037 575.01 105.509 575.291 104.89C575.42 104.607 575.556 104.243 575.74 103.993C576.233 103.324 576.777 103.174 577.206 102.5C577.359 102.259 577.206 101.391 577.206 101.094" stroke="#DDA520" stroke-width="8" stroke-linecap="round"/>
<path d="M466.42 41.5267C467.124 41.5267 467.829 41.5267 468.533 41.5267C470.117 41.5267 470.723 42.0146 472.088 42.6975C474.194 43.7501 476.575 44.6225 478.442 45.9099C479.732 46.7997 481.331 47.1827 482.511 48.2086C483.4 48.9821 484.811 50.1719 485.895 50.6644C486.852 51.0997 487.888 51.3911 488.779 51.9636C489.908 52.6897 490.808 53.7448 492.12 54.1196" stroke="#DDA520" stroke-width="15" stroke-linecap="round"/>
</g>
</g>
<defs>
<clipPath id="clip0_0_1">
<rect width="605" height="181" fill="white"/>
</clipPath>
</defs>
</svg>
